<?xml version="1.0" encoding="utf-8"?><svg version="1.1" id="Layer_1" xmlns="http://www.w3.org/2000/svg" xmlns:xlink="http://www.w3.org/1999/xlink" x="0px" y="0px" viewBox="0 0 122.88 99.28" style="enable-background:new 0 0 122.88 99.28" xml:space="preserve"><style type="text/css">.st0{fill-rule:evenodd;clip-rule:evenodd;}</style><g><path fill="#835714" class="st0" d="M9.49,38.43c0.3-1.86,0.93-3.47,1.9-4.83c19.47-13.53,84.23-12.38,100.19,0c1.84,2.36,2.64,5.96,2.93,10.17 l8.28,45.01c0.71,6.59-2.55,10.3-11.36,10.5H7.96c-5.45-1.53-8.14-4.6-7.96-9.64L9.49,38.43L9.49,38.43z M46.39,0H76.8 c4.59,0,8.35,3.76,8.35,8.35v12.99l-9.44-1.07V9.22H47.18v11.05l-9.14,2.05V8.35C38.04,3.76,41.8,0,46.39,0L46.39,0z M35.43,50.03 h52.01c0.99,0,1.88,0.4,2.53,1.05c0.65,0.65,1.05,1.55,1.05,2.53v14.22c0,0.03,0,0.07,0,0.1c0,0.03,0,0.07,0,0.1v14.22 c0,0.99-0.4,1.88-1.05,2.53c-0.65,0.65-1.55,1.05-2.53,1.05H35.43c-0.99,0-1.88-0.4-2.53-1.05c-0.65-0.65-1.05-1.54-1.05-2.53 V68.03c0-0.03,0-0.07,0-0.1c0-0.03,0-0.07,0-0.1V53.61c0-0.99,0.4-1.88,1.05-2.53C33.55,50.43,34.45,50.03,35.43,50.03L35.43,50.03 z M34.74,66.48h53.39v-12.1c0-0.19-0.08-0.36-0.2-0.49c-0.13-0.13-0.3-0.2-0.49-0.2H35.43c-0.19,0-0.36,0.08-0.49,0.2 c-0.13,0.13-0.2,0.3-0.2,0.49V66.48L34.74,66.48z M88.14,70.15H34.74v11.33c0,0.19,0.08,0.36,0.2,0.49c0.13,0.13,0.3,0.2,0.49,0.2 h52.01c0.19,0,0.36-0.08,0.49-0.2c0.13-0.13,0.2-0.3,0.2-0.49V70.15L88.14,70.15z M59,57.74h4.89v4.12H59V57.74L59,57.74z M61.44,30.61c2.4,0,4.35,1.95,4.35,4.35c0,2.4-1.95,4.35-4.35,4.35c-2.4,0-4.35-1.95-4.35-4.35 C57.09,32.56,59.04,30.61,61.44,30.61L61.44,30.61z"/></g></svg>